# xmcd
#
# Track frame offsets:
#	150
#	11400
#	22382
#	38336
#	53171
#	69053
#	82295
#	95774
#	108739
#	126313
#	142868
#	156033
#	176355
#
# Disc length: 2593 seconds
#
# Revision: 0
# Processed by: cddbd v1.5.2PL0 Copyright (c) Steve Scherf et al.
# Submitted via: dBpowerAMP V4.0
#
DISCID=a70a1f0d
DTITLE=Alan Jackson - A Lot About Livin´
DYEAR=1900
DGENRE=Country
TTITLE0=01.Chattahoochee
TTITLE1=02.She´s Got The Rhytm(And I Got The Blues)
TTITLE2=03.Tonight I Climbed The wall
TTITLE3=04.I Don´t Need The Booze(To Get A Buzz On)
TTITLE4=05.Who Says You Can´t Have It All
TTITLE5=06.Up To My Ears In Tears
TTITLE6=07.Tropical Depression
TTITLE7=08.She Likes It Too
TTITLE8=09.If It Ain´t One Thing(It´s You)
TTITLE9=10.Mercury Blues
TTITLE10=11.It Must Be Love(Bonus Track)
TTITLE11=12.Little Man(Bonus Track)
TTITLE12=13.Where I Come From
EXTD=
EXTT0=
EXTT1=
EXTT2=
EXTT3=
EXTT4=
EXTT5=
EXTT6=
EXTT7=
EXTT8=
EXTT9=
EXTT10=
EXTT11=
EXTT12=
PLAYORDER=
